<svg width="455" height="455" viewBox="0 0 455 455" fill="none" xmlns="http://www.w3.org/2000/svg">
<g clip-path="url(#clip0_215_571)">
<path d="M216.263 407.292L250.701 430.308L297.567 404.189L313.103 407.292L334.594 428.756L331.228 434.186L346.764 460.563L387.675 522.627L393.89 527.282L401.14 506.077L413.05 445.565L461.988 446.858V458.753V466.77L457.587 493.405L447.747 529.35L434.024 557.537L419.265 572.278L401.14 580.553H392.077L380.684 577.449L364.63 568.399L352.719 560.641L341.068 553.4L342.621 572.278V682.699L338.996 770.88L141.69 780.448L131.592 722.005L127.708 710.11L117.351 700.025L108.806 686.836L99.4847 670.545L92.7524 648.564L88.3506 628.135L86.5381 610.809L88.3506 585.983L90.681 560.641L99.4847 515.386L117.351 458.753L125.378 440.91L133.405 431.859L141.432 428.756H151.012L169.914 407.292L176.646 399.793L187.003 395.914L195.807 397.983L216.263 407.292Z" fill="#3C3C3C"/>
<path d="M224.807 447.375V437.031L228.95 435.221L230.763 437.031V444.272V491.854L233.87 531.678L227.915 538.918H224.807L223.254 535.815V528.057L224.807 499.87V447.375Z" fill="#BFD74D"/>
<path d="M279.442 439.875H282.549L287.21 444.272L290.835 460.563L294.46 491.854L295.496 517.455L297.049 540.728L294.46 544.349L284.88 546.935L282.549 544.349V534.264L284.88 523.402L282.549 503.49L280.996 471.424V449.444L279.442 444.272V439.875Z" fill="#BFD74D"/>
<path d="M250.959 430.307C235.078 419.36 198.552 395.759 190.887 396.172C183.223 396.586 175.61 400.482 172.762 402.379L150.753 428.497L180.012 443.496L221.182 460.046" stroke="black" stroke-width="5"/>
<path d="M249.665 429.79L297.308 403.413L313.103 406.258L335.112 429.79L297.308 464.442" stroke="black" stroke-width="5"/>
<path d="M151.271 429.79C151.271 429.79 142.15 428.024 136.771 429.79C128.059 432.65 121.235 447.375 121.235 447.375C121.235 447.375 103.178 494.975 96.6365 526.764C92.6465 546.154 90.8647 557.193 89.3864 576.932C87.78 598.383 85.8441 610.796 89.3864 632.013C92.5682 651.072 95.5021 662.06 104.663 679.078C111.856 692.439 116.695 699.922 127.708 710.369C135.95 718.187 151.271 727.436 151.271 727.436L185.968 672.613C180.875 667.786 169.707 650.012 165.771 617.532C161.835 585.052 161.887 567.795 162.405 563.227L169.396 522.11" stroke="black" stroke-width="5"/>
<path d="M332.005 434.445C350.821 466.942 389.436 531.005 393.372 527.281C397.307 523.558 407.958 466.942 412.533 445.565L461.729 446.599C461.729 446.599 464.923 454.443 461.729 472.459C458.536 490.474 448.938 532.04 436.095 554.175C423.252 576.311 399.068 584.431 386.38 579.259C373.693 574.087 371.636 573.042 362.818 567.881C353.984 562.711 341.326 552.882 341.326 552.882" stroke="black" stroke-width="5"/>
<path d="M254.843 431.859L262.87 523.144V659.683V774.5" stroke="black" stroke-width="5"/>
<path d="M224.549 486.681C224.549 451.098 225.671 440.306 224.549 438.582C223.427 436.858 226.269 436.326 228.174 435.479C232.356 433.619 230.504 442.978 230.504 442.978V486.681L233.611 531.677C231.799 535.384 227.449 541.866 224.549 538.142C220.924 533.487 224.549 531.16 224.549 486.681Z" stroke="black" stroke-width="2"/>
<path d="M224.29 447.892L230.245 445.047" stroke="black" stroke-width="5"/>
<path d="M280.996 449.443C279.634 446.891 278.73 444.312 278.924 441.427C279.073 439.226 282.118 439.875 282.549 439.875C282.549 439.875 281.982 437.858 284.362 439.875C286.13 441.374 287.469 445.306 287.469 445.306M280.996 449.443C280.642 451.402 281.945 503.146 282.549 505.042C283.153 506.938 284.362 522.885 284.362 522.885C284.362 522.885 280.219 543.832 284.362 547.452C293.476 546.418 296.79 542.366 297.308 540.47C297.308 540.47 296.056 528.188 295.496 520.299C294.659 508.502 293.597 489.354 294.201 490.043C294.805 490.733 292.13 467.028 292.13 467.028L287.469 445.306M280.996 449.443C290.576 452.547 287.469 445.306 287.469 445.306" stroke="black" stroke-width="2"/>
<path d="M226.361 393.586L223.513 412.464" stroke="black" stroke-width="5"/>
<path d="M267.531 401.344L270.121 418.929" stroke="black" stroke-width="5"/>
<path d="M226.102 409.409L223.513 425.174L250.701 442.811L270.38 431.32L267.79 415.02H255.362L226.102 409.409Z" fill="#FFDEDB"/>
<path d="M223.511 425.709C225.79 419.723 226.791 410.923 227.395 409.409" stroke="#231F20" stroke-width="5"/>
<path d="M270.378 431.32L267.789 415.555" stroke="#231F20" stroke-width="5"/>
<path d="M116.574 59.6248L166.807 32.1017L190.37 23.2837L220.924 16.8705L248.629 15L281.255 19.5426L314.398 32.9034L338.996 47.8674L366.961 68.7101L384.568 90.8889L400.881 118.412L410.979 150.745L415.64 173.725L425.738 174.527L433.765 178.535L439.462 188.155L442.31 202.05L443.346 217.014L441.274 235.719L433.765 257.096L423.926 268.052L417.712 271.526L414.863 283.818L413.308 303.057L403.728 330.046L382.495 365.586L362.299 389.635L335.37 406.737L323.2 414.219L307.405 417.425L289.539 420.365L269.342 419.028L248.371 414.219L217.04 406.737L176.905 393.109L146.352 381.351L117.092 361.043L83.4313 331.649L69.9668 336.994L61.4221 336.192L47.1809 328.176L32.9397 315.884L22.8413 304.393L15.5913 286.49L13.002 270.724L14.0377 246.942L18.4395 234.383L30.6093 225.298H49.7702L61.1632 150.211L96.1189 76.7266L116.574 59.6248Z" fill="#FFDEDB"/>
<path d="M107.512 64.7022L156.709 37.7135L173.539 28.8954L193.995 21.1462L226.879 15.5347H256.656L285.139 21.1462L316.987 32.9036L346.247 52.4103L374.211 76.1924L392.077 101.845L403.988 127.498L410.979 156.357L397.515 131.506L385.604 110.129L370.845 91.4236L354.274 72.9858L338.479 61.2284L316.987 52.4103H293.166L270.639 61.2284L256.656 72.9858L240.344 81.2695L216.004 76.1924L193.995 64.7022H173.539L135.218 81.2695L110.878 101.845L93.5297 127.498L80.0653 167.58L68.6723 233.315L62.9758 280.612L53.6543 242.133L49.2524 216.48L53.6543 173.726L75.1456 110.129L107.512 64.7022Z" fill="#263238"/>
<path d="M410.977 258.967L408.647 332.985L401.915 266.449C402.864 279.988 400.827 337.154 398.549 362.379C396.27 387.604 395.701 313.657 392.076 275.267L388.968 381.084L380.683 239.727L369.029 262.173L363.593 237.055L357.379 264.578L350.905 233.849L344.689 264.578L336.923 222.358L332.778 265.113L325.789 225.832L323.198 265.113C322.68 258.432 318.902 234.383 316.209 225.832C313.516 217.281 312.323 259.323 309.993 273.129C309.993 267.874 307.923 245.82 307.923 233.849C307.923 221.877 301.189 257.898 296.787 273.129L294.717 233.849L286.43 273.129L282.03 230.375L277.369 279.81L270.637 233.849L265.717 283.818L260.279 241.598C260.279 249.614 256.758 262.761 254.065 290.765C251.372 318.769 244.744 280.878 243.967 258.967L240.083 412.882L228.69 310.272L221.181 412.882L214.967 330.848L203.832 407.004V323.9L191.663 401.392L187.002 330.848L175.35 401.392L170.948 330.848L155.153 392.841L158.002 323.9L136.51 384.29L141.43 304.928L120.457 370.395L113.465 304.928L105.698 350.354L99.4832 304.928L91.1974 335.925L84.7241 295.575L75.9204 317.754" stroke="black" stroke-width="5"/>
<path d="M242.154 416.089L251.994 328.443C251.907 359.796 253.392 435.756 257.949 419.296C262.506 402.835 267.702 366.833 267.012 361.31L270.378 427.847L279.44 368.792C279.872 391.505 282.755 442.864 286.69 422.769C290.626 402.675 296.787 354.006 297.046 346.613L299.637 422.769L310.771 323.098L312.066 422.769L323.2 309.738V427.847L334.334 304.661V430.519L343.914 314.548C344.432 350.176 343.189 444.628 347.539 430.519C351.889 416.41 352.718 338.419 350.905 314.548L358.673 422.769V354.897L366.959 412.883C366.528 390.882 362.609 328.71 366.959 343.674C370.688 373.388 374.037 407.538 373.174 409.943V328.443L384.049 396.315L379.906 318.021" stroke="black" stroke-width="5"/>
<path d="M272.449 306.798C297.307 292.903 303.318 284.343 326.048 277.405C343.56 272.059 351.682 270.992 372.395 270.992" stroke="black" stroke-width="5"/>
<path d="M314.655 296.377C316.726 292.101 330.709 283.283 341.584 292.101" stroke="black" stroke-width="5"/>
<path d="M300.414 199.111C309.476 196.439 315.111 195.496 324.494 194.568C332.77 193.75 337.7 193.232 345.209 194.568" stroke="black" stroke-width="2"/>
<path d="M355.827 59.3576C318.023 32.9034 293.572 16.8887 248.37 15.5345C218.725 14.6463 201.581 18.9296 173.539 28.8952C144.963 39.0508 105.44 66.8397 105.44 66.8397C105.44 66.8397 82.1365 92.4923 71.5203 117.878C60.9042 143.263 51.7861 171.271 50.288 207.127C48.7526 243.876 59.6099 262.975 66.3419 294.774C73.7528 329.779 91.4839 338.725 113.467 357.569C136.81 377.578 158.619 381.962 187.52 391.505C226.487 404.373 270.611 428.135 310.253 417.692C328.701 412.833 316.794 418.319 333.039 408.073C367.841 386.123 365.406 389.635 391.04 353.561C410.42 326.287 419.783 280.447 419.783 245.873C419.783 211.67 420.56 218.083 416.935 184.949C414.246 160.374 405.399 124.769 395.185 107.723C385.327 91.2742 374.393 72.3493 355.827 59.3576Z" stroke="black" stroke-width="5"/>
<path d="M64.7881 284.085C64.7881 284.085 67.2168 201.579 84.4669 152.883C89.9239 137.478 91.7907 127.931 100.78 114.404C116.656 90.5116 132.169 79.8065 158.78 70.5805C170.304 66.5853 177.207 63.5643 189.334 64.4346C203.552 65.4549 209.17 76.079 223.254 78.3298C232.947 79.8788 239.002 81.3269 248.37 78.3298C259.324 74.8257 261.398 65.1454 271.674 59.892C288.333 51.3754 300.748 48.3606 318.8 52.9444C338.065 57.8363 345.29 64.2676 359.711 78.3298C384.968 102.958 396.602 126.63 411.497 159.029" stroke="black" stroke-width="5"/>
<path d="M53.1362 226.634C53.1362 226.634 36.0001 221.683 26.9842 226.634C17.0945 232.065 15.3322 241.331 15.3322 241.331C12.3113 252.109 10.7233 281.52 20.252 299.049C29.7807 316.579 36.3919 319.18 45.1093 326.305C53.8266 333.431 65.2734 338.869 70.7435 336.994C79.0265 334.155 77.7346 334.055 82.9132 331.65" stroke="black" stroke-width="5"/>
<path d="M415.899 174.26C415.899 174.26 421.341 173.517 424.703 174.26C436.871 176.948 440.767 187.169 442.31 199.912C444.123 214.876 442.569 229.306 441.016 235.719C441.016 235.719 439.98 249.08 428.069 264.578C424.724 268.931 415.899 273.485 415.899 271.259" stroke="black" stroke-width="5"/>
<path d="M158.001 183.078C159.545 195.066 160.92 203.522 154.116 204.455C147.312 205.388 141.107 201.178 139.563 189.19C138.02 177.202 142.285 166.728 149.089 165.795C155.892 164.862 156.458 171.09 158.001 183.078Z" fill="#231F20"/>
<path d="M309.994 166.243C311.125 178.28 312.903 184.821 306.072 185.505C299.24 186.188 292.6 183.429 291.469 171.392C290.338 159.355 294.959 149.043 301.791 148.359C308.622 147.675 308.863 154.207 309.994 166.243Z" fill="#231F20"/>
<path d="M138.583 161.166C147.684 154.592 154.105 152.219 164.993 149.943C185.448 145.668 185.707 145.668 196.064 145.668M291.61 147.538C291.61 137.117 332.471 122.51 341.325 123.222M233.868 216.747C235.94 215.144 235.32 202.478 249.406 202.05C263.492 201.623 265.978 203.653 265.46 204.722" stroke="black" stroke-width="5"/>
<path d="M142.207 214.342C146.177 216.035 150.492 212.472 160.85 212.472C171.207 212.472 179.926 214.164 182.602 214.342" stroke="black" stroke-width="2"/>
</g>
<defs>
<clipPath id="clip0_215_571">
<rect width="455" height="455" fill="white"/>
</clipPath>
</defs>
</svg>
