<svg width="708" height="708" viewBox="0 0 708 708" fill="none" xmlns="http://www.w3.org/2000/svg">
<g clip-path="url(#clip0_305_570)">
<path fill-rule="evenodd" clip-rule="evenodd" d="M78.6667 708H629.333C672.78 708 708 672.78 708 629.333V78.6667C708 35.2203 672.78 0 629.333 0H78.6667C35.2203 0 0 35.2203 0 78.6667V629.333C0 672.78 35.2203 708 78.6667 708Z" fill="#007EBB"/>
<path fill-rule="evenodd" clip-rule="evenodd" d="M609.667 609.667H504.604V430.721C504.604 381.659 485.961 354.241 447.129 354.241C404.884 354.241 382.813 382.774 382.813 430.721V609.667H281.561V268.778H382.813V314.696C382.813 314.696 413.256 258.363 485.595 258.363C557.901 258.363 609.667 302.517 609.667 393.837V609.667ZM160.769 224.141C126.28 224.141 98.3335 195.975 98.3335 161.237C98.3335 126.5 126.28 98.3335 160.769 98.3335C195.257 98.3335 223.187 126.5 223.187 161.237C223.187 195.975 195.257 224.141 160.769 224.141ZM108.487 609.667H214.066V268.778H108.487V609.667Z" fill="white"/>
</g>
<defs>
<clipPath id="clip0_305_570">
<rect width="708" height="708" fill="white"/>
</clipPath>
</defs>
</svg>
