<svg width="455" height="455" viewBox="0 0 455 455" fill="none" xmlns="http://www.w3.org/2000/svg">
<g clip-path="url(#clip0_215_571)">
<path d="M216.263 407.292L250.701 430.308L297.567 404.189L313.103 407.292L334.594 428.756L331.228 434.186L346.764 460.563L387.675 522.627L393.89 527.282L401.14 506.077L413.05 445.565L461.988 446.858V458.753V466.77L457.587 493.405L447.747 529.35L434.024 557.537L419.265 572.278L401.14 580.553H392.077L380.684 577.449L364.63 568.399L352.719 560.641L341.068 553.4L342.621 572.278V682.699L338.996 770.88L141.69 780.448L131.592 722.005L127.708 710.11L117.351 700.025L108.806 686.836L99.4847 670.545L92.7524 648.564L88.3506 628.135L86.5381 610.809L88.3506 585.983L90.681 560.641L99.4847 515.386L117.351 458.753L125.378 440.91L133.405 431.859L141.432 428.756H151.012L169.914 407.292L176.646 399.793L187.003 395.914L195.807 397.983L216.263 407.292Z" fill="#3C3C3C"/>
<path d="M224.807 447.375V437.031L228.95 435.221L230.763 437.031V444.272V491.854L233.87 531.678L227.915 538.918H224.807L223.254 535.815V528.057L224.807 499.87V447.375Z" fill="#BFD74D"/>
<path d="M279.442 439.875H282.549L287.21 444.272L290.835 460.563L294.46 491.854L295.496 517.455L297.049 540.728L294.46 544.349L284.88 546.935L282.549 544.349V534.264L284.88 523.402L282.549 503.49L280.996 471.424V449.444L279.442 444.272V439.875Z" fill="#BFD74D"/>
<path d="M250.959 430.307C235.078 419.36 198.552 395.759 190.887 396.172C183.223 396.586 175.61 400.482 172.762 402.379L150.753 428.497L180.012 443.496L221.182 460.046" stroke="black" stroke-width="5"/>
<path d="M249.665 429.79L297.308 403.413L313.103 406.258L335.112 429.79L297.308 464.442" stroke="black" stroke-width="5"/>
<path d="M151.271 429.79C151.271 429.79 142.15 428.024 136.771 429.79C128.059 432.65 121.235 447.375 121.235 447.375C121.235 447.375 103.178 494.975 96.6365 526.764C92.6465 546.154 90.8647 557.193 89.3864 576.932C87.78 598.383 85.8441 610.796 89.3864 632.013C92.5682 651.072 95.5021 662.06 104.663 679.078C111.856 692.439 116.695 699.922 127.708 710.369C135.95 718.187 151.271 727.436 151.271 727.436L185.968 672.613C180.875 667.786 169.707 650.012 165.771 617.532C161.835 585.052 161.887 567.795 162.405 563.227L169.396 522.11" stroke="black" stroke-width="5"/>
<path d="M332.005 434.445C350.821 466.942 389.436 531.005 393.372 527.281C397.307 523.558 407.958 466.942 412.533 445.565L461.729 446.599C461.729 446.599 464.923 454.443 461.729 472.459C458.536 490.474 448.938 532.04 436.095 554.175C423.252 576.311 399.068 584.431 386.38 579.259C373.693 574.087 371.636 573.042 362.818 567.881C353.984 562.711 341.326 552.882 341.326 552.882" stroke="black" stroke-width="5"/>
<path d="M254.843 431.859L262.87 523.144V659.683V774.5" stroke="black" stroke-width="5"/>
<path d="M224.549 486.681C224.549 451.098 225.671 440.306 224.549 438.582C223.427 436.858 226.269 436.326 228.174 435.479C232.356 433.619 230.504 442.978 230.504 442.978V486.681L233.611 531.677C231.799 535.384 227.449 541.866 224.549 538.142C220.924 533.487 224.549 531.16 224.549 486.681Z" stroke="black" stroke-width="2"/>
<path d="M224.29 447.892L230.245 445.047" stroke="black" stroke-width="5"/>
<path d="M280.996 449.443C279.634 446.891 278.73 444.312 278.924 441.427C279.073 439.226 282.118 439.875 282.549 439.875C282.549 439.875 281.982 437.858 284.362 439.875C286.13 441.374 287.469 445.306 287.469 445.306M280.996 449.443C280.642 451.402 281.945 503.146 282.549 505.042C283.153 506.938 284.362 522.885 284.362 522.885C284.362 522.885 280.219 543.832 284.362 547.452C293.476 546.418 296.79 542.366 297.308 540.47C297.308 540.47 296.056 528.188 295.496 520.299C294.659 508.502 293.597 489.354 294.201 490.043C294.805 490.733 292.13 467.028 292.13 467.028L287.469 445.306M280.996 449.443C290.576 452.547 287.469 445.306 287.469 445.306" stroke="black" stroke-width="2"/>
<path d="M226.361 393.586L223.513 412.464" stroke="black" stroke-width="5"/>
<path d="M267.531 401.344L270.121 418.929" stroke="black" stroke-width="5"/>
<path d="M226.102 396.69L223.513 411.947L250.701 429.015L270.38 417.895L267.79 402.12H255.362L226.102 396.69Z" fill="#FFDEDB"/>
<path d="M116.574 58.1858L166.807 31.5502L190.37 23.0165L220.924 16.8102L248.629 15L281.255 19.3962L314.398 32.326L338.996 46.8075L366.961 66.9781L384.568 88.4417L400.881 115.077L410.979 146.367L415.64 168.607L425.738 169.383L433.765 173.262L439.462 182.571L442.31 196.018L443.346 210.5L441.274 228.601L433.765 249.289L423.926 259.892L417.712 263.254L414.863 275.149L408.39 290.923L396.22 310.318L374.729 338.764L355.048 363.331L334.075 386.863L313.878 407.292L297.566 415.309L274.003 420.481L248.887 418.929L215.743 407.292L175.35 386.863L146.352 369.537L117.092 349.884L83.4313 321.438L69.9668 326.61L61.4221 325.834L47.1809 318.076L32.9397 306.181L22.8413 295.061L15.5913 277.735L13.002 262.478L14.0377 239.463L18.4395 227.308L30.6093 218.516H49.7702L61.1632 145.85L96.1189 74.736L116.574 58.1858Z" fill="#FFDEDB"/>
<path d="M107.512 63.099L156.709 36.9807L173.539 28.447L193.995 20.9476L226.879 15.5171H256.656L285.139 20.9476L316.987 32.3259L346.247 51.2035L374.211 74.2187L392.077 99.0441L403.988 123.869L410.979 151.798L397.515 127.748L385.604 107.061L370.845 88.9588L354.274 71.1155L338.479 59.7373L316.987 51.2035H293.166L270.639 59.7373L256.656 71.1155L240.344 79.1321L216.004 74.2187L193.995 63.099H173.539L135.218 79.1321L110.878 99.0441L93.5297 123.869L80.0653 162.659L68.6723 226.274L62.9758 272.046L53.6543 234.808L49.2524 209.982L53.6543 168.607L75.1456 107.061L107.512 63.099Z" fill="#263238"/>
<path d="M82.9136 317.559L78.5117 268.943L94.5655 330.489L99.4852 292.475L109.842 345.229L114.762 317.559L124.343 360.228L127.709 324.283L136.771 365.4L143.762 324.283L147.905 370.572L153.343 317.559L160.591 382.726L164.477 324.283L170.689 391.259L177.682 281.614L179.752 395.138L187.779 248.255C188.556 269.46 193.372 295.268 196.065 268.167C198.758 241.066 199.949 248.514 199.949 240.756L205.904 273.856L212.118 236.618L216.261 273.856L224.547 236.618V273.856L234.904 244.118V273.856C239.306 259.116 248.11 227.878 248.11 239.463C248.11 251.048 248.11 264.116 248.11 269.201C250.44 255.841 255.774 231.188 258.467 239.463C261.16 247.738 262.869 262.737 263.387 269.201L268.048 239.463L272.967 269.201L279.182 236.101L284.101 268.943L290.575 241.014L296.789 268.426L303.003 244.118L307.146 271.012L314.655 251.875L328.639 370.572V273.856C332.264 311.008 338.011 394.725 340.289 370.313C342.568 345.901 339.169 298.078 338.22 284.976L350.129 370.313L346.506 295.32C351.166 318.938 361.886 370.779 361.265 354.021C360.488 333.075 355.568 278.77 359.711 295.32C363.025 308.56 369.205 337.816 370.327 345.229L367.22 295.32L378.613 334.627C376.024 316.697 370.068 276.701 376.283 284.976C383.533 306.491 385.949 324.455 384.568 326.351V281.614L392.336 314.973L390.265 278.77L399.845 306.439L397.774 273.856C399.414 284.631 403.108 303.44 404.765 292.475C406.422 281.511 405.456 265.322 404.765 258.599L413.569 273.856V235.325" stroke="black" stroke-width="5"/>
<path d="M184.671 407.809L189.591 342.901C189.505 373.244 190.471 429.945 195.029 414.016C199.586 398.086 199.344 383.415 198.654 378.071L204.091 423.842L210.306 382.208C210.737 404.189 212.584 443.289 216.52 423.842C220.456 404.396 219.886 372.295 220.145 365.141L226.877 433.411L228.431 365.141L239.306 433.411L239.565 361.003L250.44 438.324L251.994 356.866L261.574 440.91V356.866C262.092 391.345 270.429 454.564 274.779 440.91C279.13 427.256 273.744 393.156 271.931 370.054L285.914 433.411V367.727L294.199 423.842C293.768 402.551 293.992 363.589 298.342 378.071C302.071 406.827 301.277 418.67 300.414 420.998L305.074 363.589L311.289 407.809L313.36 319.886C313.792 341.522 317.192 422.756 321.128 402.896C325.064 383.036 327.429 373.933 328.119 371.864V398.758L338.994 371.864V392.035L350.128 367.727" stroke="black" stroke-width="5"/>
<path d="M196.178 335.072C188.822 317.819 188.214 306.354 193.197 288.274C193.197 288.274 227.869 280.786 250.429 278.53C270.425 276.531 301.848 276.547 301.848 276.547C301.848 276.547 303.034 294.381 302.936 310.29C302.85 324.276 302.161 327.498 293.619 338.034C277.917 357.403 242.746 361.871 219.525 352.748C207.807 348.145 199.871 343.733 196.178 335.072Z" fill="#4E1B1B" stroke="#231F20" stroke-width="5"/>
<path d="M239.121 311.214C220.219 307.801 189.95 312.395 189.95 312.395L193.867 329.106L201.894 343.22L214.226 350.022L230.316 355.572L244.832 356.889L259.413 356.634L277.72 350.702L292.463 341.306C292.463 341.306 274.415 324.004 267.35 319.941C257.349 314.19 250.477 313.264 239.121 311.214Z" fill="#9B2B2B"/>
<path d="M196.178 335.072C188.822 317.819 188.214 306.354 193.197 288.274C193.197 288.274 227.869 280.786 250.429 278.53C270.425 276.531 301.848 276.547 301.848 276.547C301.848 276.547 303.902 292.97 303.29 308.943C302.754 322.919 302.835 328.717 294.294 339.253C278.592 358.622 242.746 361.871 219.525 352.748C207.807 348.145 199.871 343.733 196.178 335.072Z" stroke="#231F20" stroke-width="5"/>
<path d="M355.827 57.9271C318.023 32.3259 293.572 16.8277 248.37 15.5171C218.725 14.6576 201.581 18.8028 173.539 28.447C144.963 38.2751 105.44 65.1678 105.44 65.1678C105.44 65.1678 82.1365 89.9932 71.5203 114.56C60.9042 139.127 51.7861 166.232 50.288 200.932C48.7526 236.495 59.6099 254.978 66.3419 285.751C73.7528 319.628 91.4839 328.285 113.467 346.522C136.81 365.886 145.573 370.313 173.539 386.346C209.022 406.688 249.379 428.259 289.021 418.153C307.167 413.527 315.358 405.425 328.497 392.427L329.155 391.776C355.827 365.399 363.595 354.538 389.229 319.628C408.61 293.234 419.783 271.887 419.783 238.428C419.783 205.328 420.56 211.534 416.935 179.468C414.246 155.686 405.399 121.229 395.185 104.733C385.327 88.8144 374.393 70.4998 355.827 57.9271Z" stroke="black" stroke-width="5"/>
<path d="M64.7881 275.407C64.7881 275.407 67.2168 195.562 84.4669 148.436C89.9239 133.528 91.7907 124.289 100.78 111.198C116.656 88.0764 132.169 77.7166 158.78 68.7882C170.304 64.9218 177.207 61.9982 189.334 62.8404C203.552 63.8278 209.17 74.1093 223.254 76.2875C232.947 77.7866 239.002 79.188 248.37 76.2875C259.324 72.8964 261.398 63.5283 271.674 58.4443C288.333 50.2024 300.748 47.2848 318.8 51.7207C338.065 56.4549 345.29 62.6788 359.711 76.2875C384.968 100.122 396.602 123.03 411.497 154.384" stroke="black" stroke-width="5"/>
<path d="M53.1362 219.809C53.1362 219.809 36.0001 215.018 26.9842 219.809C17.0945 225.065 15.3322 234.032 15.3322 234.032C12.3113 244.462 10.7233 272.925 20.252 289.889C29.7807 306.853 36.3919 309.37 45.1093 316.266C53.8266 323.162 65.2734 328.424 70.7435 326.61C79.0265 323.863 77.7346 323.766 82.9132 321.438" stroke="black" stroke-width="5"/>
<path d="M415.899 169.124C415.899 169.124 421.341 168.405 424.703 169.124C436.871 171.726 440.767 181.617 442.31 193.949C444.123 208.431 442.569 222.395 441.016 228.602C441.016 228.602 439.98 241.531 428.069 256.53C424.724 260.742 415.899 265.15 415.899 262.995" stroke="black" stroke-width="5"/>
<path d="M139.358 117.404C146.35 109.129 155.039 103.773 166.028 102.147C180.009 100.078 184.671 102.147 195.546 109.129M287.728 99.5611C287.728 90.2517 307.355 84.6494 316.208 85.3383C321.884 85.7798 337.7 94.3892 337.7 102.147M225.584 213.085C227.656 211.534 235.32 208.327 249.406 207.913C263.492 207.5 265.978 208.948 265.46 209.982" stroke="black" stroke-width="5"/>
<path d="M150.197 203.776C144.453 183.062 155.924 160.849 173.796 160.849C189.115 160.849 200.304 169.853 202.538 197.655" stroke="black" stroke-width="15"/>
<path d="M150.197 203.776C144.453 183.062 155.924 160.849 173.796 160.849C189.115 160.849 200.304 169.853 202.538 197.655" stroke="black" stroke-width="15"/>
<path d="M291.697 188.033C287.379 166.975 300.338 145.595 318.169 146.81C333.452 147.853 344.001 157.596 344.333 185.486" stroke="black" stroke-width="15"/>
<line y1="-5" x2="40.2294" y2="-5" transform="matrix(-0.1416 0.989924 -0.989975 -0.141243 126.412 223.947)" stroke="#F71D1D" stroke-opacity="0.55" stroke-width="10"/>
<line y1="-5" x2="40.2293" y2="-5" transform="matrix(-0.1416 0.989924 -0.989975 -0.141242 142.466 221.878)" stroke="#F71D1D" stroke-opacity="0.55" stroke-width="10"/>
<line y1="-5" x2="40.2294" y2="-5" transform="matrix(-0.1416 0.989924 -0.989975 -0.141243 161.626 218.258)" stroke="#F71D1D" stroke-opacity="0.55" stroke-width="10"/>
<line y1="-5" x2="40.2294" y2="-5" transform="matrix(-0.1416 0.989924 -0.989975 -0.141243 126.412 223.947)" stroke="#F71D1D" stroke-opacity="0.55" stroke-width="10"/>
<line y1="-5" x2="40.2293" y2="-5" transform="matrix(-0.1416 0.989924 -0.989975 -0.141242 142.466 221.878)" stroke="#F71D1D" stroke-opacity="0.55" stroke-width="10"/>
<line y1="-5" x2="40.2294" y2="-5" transform="matrix(-0.1416 0.989924 -0.989975 -0.141243 161.626 218.258)" stroke="#F71D1D" stroke-opacity="0.55" stroke-width="10"/>
<line y1="-5" x2="40.2027" y2="-5" transform="matrix(0.290569 0.956854 0.953866 -0.300231 361.982 202.793)" stroke="#F71D1D" stroke-opacity="0.55" stroke-width="10"/>
<line y1="-5" x2="40.2027" y2="-5" transform="matrix(0.290569 0.956854 0.953866 -0.300232 346.403 203.175)" stroke="#F71D1D" stroke-opacity="0.55" stroke-width="10"/>
<line y1="-5" x2="40.2027" y2="-5" transform="matrix(0.290569 0.956854 0.953866 -0.300232 327.63 202.495)" stroke="#F71D1D" stroke-opacity="0.55" stroke-width="10"/>
</g>
<defs>
<clipPath id="clip0_215_571">
<rect width="455" height="455" fill="white"/>
</clipPath>
</defs>
</svg>
