<svg width="481" height="1031" viewBox="0 0 481 1031" fill="none" xmlns="http://www.w3.org/2000/svg">
<path d="M137.647 1002.74L137.646 1016.19L144.119 1020.84L156.548 1021.87L179.333 1022.91L203.414 1021.87L223.351 1020.84L236.556 1018.77L239.923 1013.85L240.441 1001.96L239.924 991.876L208.594 991.878L189.433 990.327L174.415 990.328L154.737 993.949L141.013 997.311L137.647 1002.74Z" fill="#FCFCFC"/>
<path d="M251.318 985.932L239.408 984.123L238.113 984.123L240.961 992.655L240.96 1005.84L249.246 1010.24L265.299 1014.89L280.057 1017.22L298.441 1018.51L310.093 1018.51L320.968 1016.18L330.807 1014.89L339.352 1012.56L343.754 1008.42L346.084 1003.51L346.085 989.547L346.085 980.239L343.755 975.585L339.354 976.878L322.264 978.689L308.8 980.241L298.443 983.086L281.613 985.931L263.488 985.932L251.318 985.932Z" fill="#FCFCFC"/>
<path d="M135.316 990.068L137.128 999.893L143.343 997.049L158.619 993.686L179.593 990.065L190.726 990.065L206.521 991.098L229.306 991.097L239.404 991.097L233.45 970.929L217.915 964.207L203.674 960.847L189.433 959.554L170.532 960.848L158.621 965.503L143.344 977.139L135.316 990.068Z" fill="black"/>
<path d="M261.156 985.669L238.37 983.343L239.147 980.758L254.425 969.639L267.63 959.295L277.729 950.504L289.381 945.59L299.22 947.4L320.193 955.156L338.317 965.756L344.272 975.322L335.986 976.874L314.495 979.461L301.807 983.34L279.54 985.668L261.156 985.669Z" fill="black"/>
<path d="M149.304 858.703L146.978 768.198L307.764 760.949L302.582 824.821L299.99 892.312L305.683 949.201L290.666 946.875L279.274 951.013L258.042 966.787L237.328 983.855L233.704 971.185L225.678 966.789L210.92 962.911L192.278 960.326L176.743 960.327L164.315 962.913L149.298 971.189L136.351 987.998L151.373 899.043L149.304 858.703Z" fill="#231F20"/>
<path d="M146.548 766.999L150.846 896.61L135.683 991.793M135.683 991.793C135.683 991.793 139.276 983.097 142.844 978.483C146.875 973.271 155.325 967.512 155.325 967.512C158.867 964.985 167.965 960.01 176.02 960.323C186.089 960.714 192.782 959.376 206.718 961.516C217.867 963.228 231.879 968.825 234.384 971.854M135.683 991.793L137.23 1005.71M240 991.788C240.253 997.926 240.415 1011.41 239.045 1016.26C237.675 1021.11 216.712 1020.52 198.455 1021.94C180.199 1023.36 165.374 1022.45 150.419 1021.2C135.464 1019.96 137.733 1016.81 137.23 1014.74L137.23 1005.71M240 991.788L234.384 971.854M240 991.788L205.544 991.578C205.544 991.578 186.547 988.886 176.811 990.461C167.075 992.036 146.501 995.677 142.096 997.638C137.69 999.598 137.017 1003.83 137.23 1005.71M234.384 971.854C234.012 972.994 229.237 958.859 227.136 927.018C225.034 895.178 227.611 879.167 229.162 875.142L236.896 809.367L241.866 764" stroke="black" stroke-width="5"/>
<path d="M307.079 760.531L303.106 808.482L299.77 893.878L305.703 949.793C311.61 951.799 325.627 957.335 334.44 963.433C343.253 969.53 346.155 978.364 346.504 982.019L345.61 1004.9C345.08 1007.99 340.66 1014.51 327.225 1015.91C310.432 1017.65 302.908 1021.36 280.439 1017.29C246.202 1012.22 240.011 1005.43 240.011 1005.43" stroke="black" stroke-width="5"/>
<path d="M306.434 950.084C306.434 950.084 299.316 947.113 294.514 946.69C288.492 946.16 286.869 947.192 280.348 950.403C273.827 953.613 270.403 956.574 264.673 961.252C254.199 969.802 237.939 982.48 237.939 982.48C236.677 983.319 238.851 985.029 260.268 985.861C281.685 986.694 297.978 983.952 303.447 982.477C305.781 981.502 313.609 979.248 326.251 978.034C338.893 976.82 344.039 976.061 345.032 975.833" stroke="black" stroke-width="5"/>
<path d="M406.676 436.668V445.977L446.551 443.65L451.471 423.221L455.873 410.032L468.301 393.999L473.221 388.569L477.623 381.069V374.604L476.328 370.984H473.221L465.194 378.742L455.873 391.155H450.953V388.569L454.319 378.225L457.944 365.553L460.533 354.951L463.641 346.417L460.533 336.332L457.944 335.298L454.319 340.987L448.105 360.123L442.149 378.225L439.042 382.362L437.23 378.225L436.194 362.967L434.899 335.298L433.863 321.592L431.274 316.42H426.096L422.212 321.592V336.332V378.742L420.658 388.569H418.069L414.185 378.742L406.676 343.314L405.381 331.419L402.533 328.057H399.167L396.577 329.867L394.765 337.884V356.761L397.872 373.311L404.086 402.533L402.533 408.222L396.577 410.032L385.184 408.222H375.863L369.648 412.101L365.765 417.79L367.577 420.893L373.274 422.186L383.372 420.893L391.917 422.186L399.167 424.255L404.086 428.651L406.676 436.668Z" fill="#FFDEDB" stroke="black"/>
<path d="M405.899 433.823C405.899 433.823 407.358 432.684 402.792 427.358C395.623 418.997 379.488 421.928 379.488 421.928C374.309 422.531 361.363 422.083 367.577 414.428C373.791 406.774 376.381 407.963 382.854 407.963C389.327 407.963 399.167 412.36 402.792 407.963C406.417 403.567 394.506 371.501 394.506 350.296C394.506 345.633 393.443 329.79 397.872 328.315C406.417 325.471 405.997 335.481 406.417 338.918C409.006 360.123 414.53 380.466 416.256 384.69C417.982 388.913 421.435 393.999 421.435 380.552C421.435 341.866 421.435 338.918 421.435 338.918C421.435 338.918 420.296 321.437 424.024 317.713C427.753 313.989 433.863 315.644 433.863 322.626C433.863 329.608 436.194 366.847 436.194 366.847C436.194 365.985 436.194 374.346 438.006 380.552C439.979 387.305 444.221 372.277 447.328 363.743C450.004 355.468 453.024 342.797 454.06 340.728C460.793 327.281 463.641 344.435 463.123 348.228C462.605 352.02 455.873 374.346 455.873 374.346C455.873 374.346 449.831 388.482 450.953 390.379C452.075 392.275 453.542 393.12 457.685 388.569C466.489 377.19 472.099 369.95 473.998 369.95C477.45 370.639 479.177 374.346 477.105 380.552C475.427 385.579 461.914 402.619 455.873 411.584C449.831 420.548 448.364 434.34 448.364 434.34" stroke="black" stroke-width="5"/>
<path d="M206.263 395.292L240.701 418.308L287.567 392.189L303.103 395.292L324.594 416.756L321.228 422.186L336.764 448.563L377.675 510.627L383.89 515.282L391.14 494.077L403.051 433.565L451.989 434.858V446.753V454.77L447.587 481.405L437.747 517.35L424.024 545.537L409.265 560.278L391.14 568.553H382.077L370.684 565.449L354.63 556.399L342.72 548.641L331.068 541.4L332.621 560.278V670.699L328.996 758.88L131.691 768.448L121.592 710.005L117.708 698.11L107.351 688.025L98.8064 674.836L89.4848 658.545L82.7526 636.564L78.3508 616.135L76.5383 598.809L78.3508 573.983L80.6812 548.641L89.4848 503.386L107.351 446.753L115.378 428.91L123.405 419.859L131.432 416.756H141.012L159.914 395.292L166.646 387.793L177.004 383.914L185.807 385.983L206.263 395.292Z" fill="#3C3C3C"/>
<path d="M214.808 435.375V425.031L218.951 423.221L220.763 425.031V432.272V479.854L223.87 519.678L217.915 526.919H214.808L213.254 523.815V516.057L214.808 487.87V435.375Z" fill="#BFD74D"/>
<path d="M269.442 427.876H272.549L277.21 432.272L280.835 448.563L284.46 479.854L285.496 505.455L287.049 528.729L284.46 532.349L274.88 534.935L272.549 532.349V522.264L274.88 511.403L272.549 491.491L270.996 459.425V437.444L269.442 432.272V427.876Z" fill="#BFD74D"/>
<path d="M240.96 418.308C225.078 407.36 188.552 383.759 180.888 384.173C173.223 384.586 165.611 388.483 162.762 390.379L140.753 416.497L170.012 431.496L211.182 448.046" stroke="black" stroke-width="5"/>
<path d="M239.665 417.79L287.308 391.413L303.103 394.258L325.112 417.79L287.308 452.442" stroke="black" stroke-width="5"/>
<path d="M141.271 417.79C141.271 417.79 132.15 416.024 126.771 417.79C118.059 420.65 111.235 435.375 111.235 435.375C111.235 435.375 93.1782 482.975 86.6366 514.764C82.6466 534.154 80.8647 545.193 79.3865 564.932C77.7801 586.383 75.8442 598.796 79.3865 620.013C82.5683 639.072 85.5021 650.06 94.6634 667.078C101.856 680.439 106.695 687.922 117.708 698.369C125.951 706.187 141.271 715.436 141.271 715.436L175.968 660.613C170.876 655.786 159.707 638.012 155.771 605.532C151.835 573.052 151.887 555.795 152.405 551.227L159.396 510.11" stroke="black" stroke-width="5"/>
<path d="M322.005 422.445C340.821 454.942 379.436 519.005 383.372 515.282C387.308 511.558 397.958 454.942 402.533 433.565L451.73 434.599C451.73 434.599 454.923 442.443 451.73 460.459C448.536 478.475 438.939 520.04 426.096 542.176C413.253 564.312 389.068 572.432 376.381 567.26C363.693 562.088 361.636 561.042 352.818 555.881C343.984 550.711 331.327 540.883 331.327 540.883" stroke="black" stroke-width="5"/>
<path d="M325.112 454.511L332.621 554.33V667.078L329.514 759.398L246.138 763.018L131.691 768.448L120.298 703.282" stroke="black" stroke-width="5"/>
<path d="M244.844 419.859L252.87 511.144V647.683V762.501" stroke="black" stroke-width="5"/>
<path d="M214.549 474.682C214.549 439.099 215.671 428.307 214.549 426.583C213.427 424.859 216.269 424.327 218.174 423.48C222.356 421.619 220.504 430.979 220.504 430.979V474.682L223.611 519.678C221.799 523.384 217.449 529.866 214.549 526.143C210.924 521.488 214.549 519.16 214.549 474.682Z" stroke="black" stroke-width="2"/>
<path d="M214.29 435.892L220.245 433.048" stroke="black" stroke-width="5"/>
<path d="M270.996 437.444C269.634 434.891 268.73 432.313 268.924 429.427C269.073 427.227 272.118 427.876 272.549 427.876C272.549 427.876 271.982 425.859 274.362 427.876C276.13 429.374 277.469 433.306 277.469 433.306M270.996 437.444C270.642 439.402 271.945 491.146 272.549 493.042C273.153 494.939 274.362 510.886 274.362 510.886C274.362 510.886 270.219 531.832 274.362 535.452C283.476 534.418 286.791 530.367 287.308 528.47C287.308 528.47 286.056 516.189 285.496 508.3C284.659 496.503 283.597 477.354 284.201 478.044C284.805 478.733 282.13 455.028 282.13 455.028L277.469 433.306M270.996 437.444C280.576 440.547 277.469 433.306 277.469 433.306" stroke="black" stroke-width="2"/>
<path d="M175.709 659.837C181.923 650.735 182.096 647.252 181.405 646.649" stroke="black" stroke-width="5"/>
<path d="M216.361 381.587L213.513 400.464" stroke="black" stroke-width="5"/>
<path d="M257.531 389.345L260.121 406.929" stroke="black" stroke-width="5"/>
<path d="M216.102 384.69L213.513 399.947L240.701 417.014L260.38 405.895L257.79 390.12H245.362L216.102 384.69Z" fill="#FFDEDB"/>
<path d="M106.575 46.1858L156.807 19.5502L180.37 11.0165L210.924 4.81018L238.63 3L271.255 7.39616L304.398 20.326L328.997 34.8075L356.961 54.9781L374.568 76.4417L390.881 103.077L400.979 134.367L405.64 156.607L415.739 157.383L423.765 161.262L429.462 170.571L432.31 184.018L433.346 198.5L431.274 216.601L423.765 237.289L413.926 247.892L407.712 251.254L404.863 263.149L398.39 278.923L386.22 298.318L364.729 326.764L345.048 351.072L328.995 371.243L315.53 383.914L302.584 396.068L289.896 403.05L265.557 407.188H240.958L206.52 396.068L165.35 374.605L136.352 357.537L107.092 337.884L73.4313 309.438L59.9669 314.61L51.4222 313.834L37.1809 306.076L22.9397 294.181L12.8414 283.061L5.59133 265.735L3.00201 250.478L4.03774 227.463L8.43957 215.308L20.6093 206.516H39.7703L51.1632 133.85L86.119 62.736L106.575 46.1858Z" fill="#FFDEDB"/>
<path d="M97.5119 51.099L146.709 24.9807L163.539 16.447L183.995 8.94764L216.879 3.51709H246.656L275.139 8.94764L306.987 20.3259L336.247 39.2035L364.211 62.2187L382.077 87.0441L393.988 111.869L400.979 139.798L387.515 115.748L375.604 95.0606L360.845 76.9588L344.273 59.1155L328.479 47.7373L306.987 39.2035H283.166L260.639 47.7373L246.656 59.1155L230.344 67.1321L206.004 62.2187L183.995 51.099H163.539L125.218 67.1321L100.878 87.0441L83.5296 111.869L70.0652 150.659L58.6722 214.274L52.9757 260.046L43.6542 222.808L39.2524 197.982L43.6542 156.607L65.1455 95.0606L97.5119 51.099Z" fill="#263238"/>
<path d="M72.9135 305.559L68.5117 256.943L84.5654 318.489L89.4851 280.475L99.8423 333.229L104.762 305.559L114.342 348.227L117.709 312.282L126.771 353.399L133.762 312.282L137.905 358.571L143.343 305.559L150.591 370.725L154.477 312.282L160.689 379.259L167.682 269.614L169.752 383.138L177.779 232.117C178.556 253.322 183.372 279.13 186.065 252.029C188.758 224.928 189.949 236.513 189.949 228.755L195.904 261.856L202.118 224.618L206.261 261.856L214.547 224.618V261.856L224.904 232.117V261.856C229.306 247.116 238.11 220.532 238.11 232.117C238.11 243.702 238.11 256.77 238.11 261.856C240.44 248.495 245.774 223.842 248.467 232.117C251.16 240.392 252.869 255.391 253.387 261.856L258.048 232.117L262.967 261.856L269.182 228.755L274.101 256.943L280.575 235.738L286.789 263.149L293.003 232.117L297.146 259.011L304.655 239.875L318.639 358.571V261.856C322.264 299.008 328.011 382.724 330.289 358.313C332.568 333.901 329.169 286.078 328.22 272.976L340.129 358.313L336.506 283.32C341.166 306.938 351.886 358.778 351.265 342.021C350.488 321.075 345.568 266.769 349.711 283.32C353.025 296.56 359.205 325.816 360.327 333.229L357.22 283.32L368.613 322.626C366.024 304.697 360.068 264.701 366.283 272.976C373.533 294.491 375.949 312.455 374.568 314.351V269.614L382.336 302.973L380.265 266.769L389.845 294.439L387.774 261.856C389.414 272.631 393.108 291.44 394.765 280.475C396.422 269.51 395.456 253.322 394.765 246.599L403.569 261.856V223.325" stroke="black" stroke-width="5"/>
<path d="M174.671 395.809L179.591 330.901C179.505 361.244 180.472 417.945 185.029 402.016C189.586 386.086 189.344 371.415 188.654 366.071L194.091 411.842L200.306 370.208C200.737 392.189 202.584 431.289 206.52 411.842C210.456 392.396 209.886 360.295 210.145 353.141L216.877 421.411L218.431 353.141L229.306 421.411L229.565 349.003L240.44 426.324L241.994 344.866L251.574 428.91V344.866C252.092 379.345 260.429 442.564 264.78 428.91C269.13 415.256 263.744 381.156 261.931 358.054L275.914 421.411V355.727L284.199 411.842C283.768 390.551 283.992 351.589 288.342 366.071C292.071 394.827 291.277 406.67 290.414 408.998L295.074 351.589L301.289 395.809L303.36 307.886C303.792 329.522 307.192 410.756 311.128 390.896C315.064 371.036 317.429 361.933 318.119 359.864V386.758L328.994 359.864V380.035L340.129 355.727" stroke="black" stroke-width="5"/>
<path d="M183.475 316.42C178.317 298.389 179.135 286.938 186.324 269.614C186.324 269.614 221.658 266.474 244.324 267.028C264.413 267.518 295.593 271.424 295.593 271.424C295.593 271.424 297.135 291.223 288.084 304.783C280.316 316.42 278.706 316.59 268.923 325.988C250.938 343.265 226.359 348.776 204.449 336.849C193.393 330.831 186.065 325.471 183.475 316.42Z" fill="#4E1B1B" stroke="#231F20" stroke-width="5"/>
<path d="M229.047 298.06C210.715 292.334 180.109 293.146 180.109 293.146L181.922 310.214L188.136 325.212L199.529 333.488L214.806 340.987L229.047 342.797L242.77 340.987L255.976 336.332L270.476 325.212C270.476 325.212 262.482 315.119 255.976 310.214C246.765 303.27 240.061 301.5 229.047 298.06Z" fill="#9B2B2B"/>
<path d="M183.475 316.42C178.316 298.389 179.135 286.938 186.323 269.614C186.323 269.614 221.657 266.475 244.324 267.028C264.413 267.519 295.592 271.424 295.592 271.424C295.592 271.424 297.135 291.223 288.083 304.783C280.315 316.42 278.705 316.59 268.922 325.988C250.938 343.265 226.359 348.776 204.448 336.849C193.392 330.831 186.064 325.471 183.475 316.42Z" stroke="#231F20" stroke-width="5"/>
<path d="M291.449 178.168C300.752 178.827 304.145 177.275 312.421 176.93C320.697 176.586 326.921 176.93 335.468 176.93" stroke="black" stroke-width="2"/>
<path d="M345.827 45.9271C308.023 20.3259 283.572 4.82767 238.37 3.51714C208.725 2.65763 191.581 6.80281 163.539 16.447C134.963 26.2751 95.4402 53.1678 95.4402 53.1678C95.4402 53.1678 72.1364 77.9932 61.5202 102.56C50.904 127.127 41.7859 154.232 40.2879 188.932C38.7525 224.495 49.6097 242.978 56.3418 273.751C63.7527 307.628 81.4838 316.285 103.467 334.522C126.81 353.886 135.573 358.313 163.539 374.346C199.022 394.688 239.379 416.259 279.021 406.153C297.167 401.527 305.358 393.425 318.497 380.427L319.155 379.776C345.827 353.399 353.595 342.538 379.229 307.628C398.609 281.234 409.783 259.887 409.783 226.428C409.783 193.328 410.56 199.534 406.935 167.468C404.246 143.686 395.399 109.229 385.185 92.7332C375.327 76.8144 364.392 58.4998 345.827 45.9271Z" stroke="black" stroke-width="5"/>
<path d="M54.7883 263.407C54.7883 263.407 57.217 183.562 74.467 136.436C79.9241 121.528 81.7909 112.289 90.7797 99.1981C106.656 76.0764 122.169 65.7166 148.78 56.7882C160.304 52.9218 167.207 49.9982 179.334 50.8404C193.552 51.8278 199.17 62.1093 213.254 64.2875C222.947 65.7866 229.002 67.188 238.371 64.2875C249.324 60.8964 251.399 51.5283 261.674 46.4443C278.333 38.2024 290.748 35.2848 308.8 39.7207C328.065 44.4549 335.29 50.6788 349.711 64.2875C374.968 88.1219 386.602 111.03 401.497 142.384" stroke="black" stroke-width="5"/>
<path d="M43.1362 207.809C43.1362 207.809 26.0001 203.017 16.9842 207.809C7.09448 213.065 5.33217 222.032 5.33217 222.032C2.3113 232.462 0.723327 260.925 10.252 277.889C19.7807 294.853 26.3919 297.37 35.1093 304.266C43.8266 311.162 55.2734 316.424 60.7435 314.61C69.0265 311.863 67.7346 311.765 72.9132 309.438" stroke="black" stroke-width="5"/>
<path d="M405.899 157.124C405.899 157.124 411.341 156.405 414.703 157.124C426.871 159.726 430.767 169.617 432.31 181.949C434.123 196.431 432.569 210.395 431.015 216.602C431.015 216.602 429.98 229.531 418.069 244.53C414.724 248.742 405.899 253.15 405.899 250.995" stroke="black" stroke-width="5"/>
<path d="M171.294 168.562C172.837 180.163 167.752 182.34 160.948 183.242C154.144 184.145 148.198 183.432 146.655 171.831C145.112 160.23 149.376 150.093 156.18 149.19C162.984 148.288 169.751 156.961 171.294 168.562Z" fill="#231F20"/>
<path d="M316.345 158.655C317.476 170.303 311.745 173.788 304.914 174.45C298.082 175.112 292.737 172.7 291.606 161.051C290.475 149.402 295.096 139.423 301.927 138.761C308.759 138.099 315.214 147.006 316.345 158.655Z" fill="#231F20"/>
<path d="M129.358 136.436C138.459 130.074 146.593 131.856 157.582 130.23C171.562 128.161 174.798 126.069 185.547 128.161M277.728 118.593C286.525 117.381 291.401 114.801 300.255 115.49C305.93 115.931 315.101 114.515 320.709 115.49C326.662 116.524 326.185 114.967 329.253 118.593M215.584 189.19C217.656 187.638 225.32 184.432 239.406 184.018C253.492 183.604 255.978 185.57 255.46 186.604" stroke="black" stroke-width="5"/>
<path d="M139.716 191.594C143.686 193.232 147.223 186.681 161.723 186.681C174.152 186.681 179.505 186.508 182.18 186.681" stroke="black" stroke-width="2"/>
</svg>
