<svg width="455" height="455" viewBox="0 0 455 455" fill="none" xmlns="http://www.w3.org/2000/svg">
<g clip-path="url(#clip0_215_571)">
<path d="M216.263 407.292L250.701 430.308L297.567 404.189L313.103 407.292L334.594 428.756L331.228 434.186L346.764 460.563L387.675 522.627L393.89 527.282L401.14 506.077L413.05 445.565L461.988 446.858V458.753V466.77L457.587 493.405L447.747 529.35L434.024 557.537L419.265 572.278L401.14 580.553H392.077L380.684 577.449L364.63 568.399L352.719 560.641L341.068 553.4L342.621 572.278V682.699L338.996 770.88L141.69 780.448L131.592 722.005L127.708 710.11L117.351 700.025L108.806 686.836L99.4847 670.545L92.7524 648.564L88.3506 628.135L86.5381 610.809L88.3506 585.983L90.681 560.641L99.4847 515.386L117.351 458.753L125.378 440.91L133.405 431.859L141.432 428.756H151.012L169.914 407.292L176.646 399.793L187.003 395.914L195.807 397.983L216.263 407.292Z" fill="#3C3C3C"/>
<path d="M224.807 447.375V437.031L228.95 435.221L230.763 437.031V444.272V491.854L233.87 531.678L227.915 538.918H224.807L223.254 535.815V528.057L224.807 499.87V447.375Z" fill="#BFD74D"/>
<path d="M279.442 439.875H282.549L287.21 444.272L290.835 460.563L294.46 491.854L295.496 517.455L297.049 540.728L294.46 544.349L284.88 546.935L282.549 544.349V534.264L284.88 523.402L282.549 503.49L280.996 471.424V449.444L279.442 444.272V439.875Z" fill="#BFD74D"/>
<path d="M250.959 430.307C235.078 419.36 198.552 395.759 190.887 396.172C183.223 396.586 175.61 400.482 172.762 402.379L150.753 428.497L180.012 443.496L221.182 460.046" stroke="black" stroke-width="5"/>
<path d="M249.665 429.79L297.308 403.413L313.103 406.258L335.112 429.79L297.308 464.442" stroke="black" stroke-width="5"/>
<path d="M151.271 429.79C151.271 429.79 142.15 428.024 136.771 429.79C128.059 432.65 121.235 447.375 121.235 447.375C121.235 447.375 103.178 494.975 96.6365 526.764C92.6465 546.154 90.8647 557.193 89.3864 576.932C87.78 598.383 85.8441 610.796 89.3864 632.013C92.5682 651.072 95.5021 662.06 104.663 679.078C111.856 692.439 116.695 699.922 127.708 710.369C135.95 718.187 151.271 727.436 151.271 727.436L185.968 672.613C180.875 667.786 169.707 650.012 165.771 617.532C161.835 585.052 161.887 567.795 162.405 563.227L169.396 522.11" stroke="black" stroke-width="5"/>
<path d="M332.005 434.445C350.821 466.942 389.436 531.005 393.372 527.281C397.307 523.558 407.958 466.942 412.533 445.565L461.729 446.599C461.729 446.599 464.923 454.443 461.729 472.459C458.536 490.474 448.938 532.04 436.095 554.175C423.252 576.311 399.068 584.431 386.38 579.259C373.693 574.087 371.636 573.042 362.818 567.881C353.984 562.711 341.326 552.882 341.326 552.882" stroke="black" stroke-width="5"/>
<path d="M254.843 431.859L262.87 523.144V659.683V774.5" stroke="black" stroke-width="5"/>
<path d="M224.549 486.681C224.549 451.098 225.671 440.306 224.549 438.582C223.427 436.858 226.269 436.326 228.174 435.479C232.356 433.619 230.504 442.978 230.504 442.978V486.681L233.611 531.677C231.799 535.384 227.449 541.866 224.549 538.142C220.924 533.487 224.549 531.16 224.549 486.681Z" stroke="black" stroke-width="2"/>
<path d="M224.29 447.892L230.245 445.047" stroke="black" stroke-width="5"/>
<path d="M280.996 449.443C279.634 446.891 278.73 444.312 278.924 441.427C279.073 439.226 282.118 439.875 282.549 439.875C282.549 439.875 281.982 437.858 284.362 439.875C286.13 441.374 287.469 445.306 287.469 445.306M280.996 449.443C280.642 451.402 281.945 503.146 282.549 505.042C283.153 506.938 284.362 522.885 284.362 522.885C284.362 522.885 280.219 543.832 284.362 547.452C293.476 546.418 296.79 542.366 297.308 540.47C297.308 540.47 296.056 528.188 295.496 520.299C294.659 508.502 293.597 489.354 294.201 490.043C294.805 490.733 292.13 467.028 292.13 467.028L287.469 445.306M280.996 449.443C290.576 452.547 287.469 445.306 287.469 445.306" stroke="black" stroke-width="2"/>
<path d="M226.361 393.586L223.513 412.464" stroke="black" stroke-width="5"/>
<path d="M267.531 401.344L270.121 418.929" stroke="black" stroke-width="5"/>
<path d="M226.102 409.409L223.513 425.174L250.701 442.811L270.38 431.32L267.79 415.02H255.362L226.102 409.409Z" fill="#FFDEDB"/>
<path d="M223.511 425.709C225.79 419.723 226.791 410.923 227.395 409.409" stroke="#231F20" stroke-width="5"/>
<path d="M270.378 431.32L267.789 415.555" stroke="#231F20" stroke-width="5"/>
<path d="M116.574 59.6248L166.807 32.1017L190.37 23.2837L220.924 16.8705L248.629 15L281.255 19.5426L314.398 32.9034L338.996 47.8674L366.961 68.7101L384.568 90.8889L400.881 118.412L410.979 150.745L415.64 173.725L425.738 174.527L433.765 178.535L439.462 188.155L442.31 202.05L443.346 217.014L441.274 235.719L433.765 257.096L423.926 268.052L417.712 271.526L414.863 283.818L408.39 300.118L396.22 320.159L374.729 349.553L352.979 373.335L328.898 389.635L303.523 406.737L289.023 411.814L269.085 414.219H248.371L217.04 406.737L176.905 393.109L146.352 381.351L117.092 361.043L83.4313 331.649L69.9668 336.994L61.4221 336.192L47.1809 328.176L32.9397 315.884L22.8413 304.393L15.5913 286.49L13.002 270.724L14.0377 246.942L18.4395 234.383L30.6093 225.298H49.7702L61.1632 150.211L96.1189 76.7266L116.574 59.6248Z" fill="#FFDEDB"/>
<path d="M107.512 64.7022L156.709 37.7135L173.539 28.8954L193.995 21.1462L226.879 15.5347H256.656L285.139 21.1462L316.987 32.9036L346.247 52.4103L374.211 76.1924L392.077 101.845L403.988 127.498L410.979 156.357L397.515 131.506L385.604 110.129L370.845 91.4236L354.274 72.9858L338.479 61.2284L316.987 52.4103H293.166L270.639 61.2284L256.656 72.9858L240.344 81.2695L216.004 76.1924L193.995 64.7022H173.539L135.218 81.2695L110.878 101.845L93.5297 127.498L80.0653 167.58L68.6723 233.315L62.9758 280.612L53.6543 242.133L49.2524 216.48L53.6543 173.726L75.1456 110.129L107.512 64.7022Z" fill="#263238"/>
<path d="M82.9136 327.641L78.5117 277.405L94.5655 341.002L99.4852 301.721L109.842 356.233L114.762 327.641L124.343 371.732L127.709 334.589L136.771 377.076L143.762 334.589L147.905 382.42L153.343 327.641L161.888 392.574L164.477 334.589L172.245 396.85L177.682 290.498L182.602 396.85L187.263 256.829C188.04 278.741 192.856 305.409 195.549 277.405C198.242 249.401 199.433 261.372 199.433 253.356L205.388 287.559L211.602 249.08L215.745 287.559L224.031 249.08V287.559L234.388 256.829V287.559C238.79 272.328 247.594 244.858 247.594 256.829C247.594 268.801 247.594 282.304 247.594 287.559C249.924 273.753 255.258 248.278 257.951 256.829C260.644 265.38 262.353 280.879 262.871 287.559L267.532 256.829L272.451 287.559L278.666 253.356L283.585 282.482L290.576 249.08L296.791 277.405L303.005 245.339L307.148 273.129L314.657 253.356L328.639 371.732V282.482C332.264 320.872 335.941 391.345 338.22 366.12C340.498 340.895 339.169 307.511 338.22 293.972L350.648 363.181L346.506 304.661C351.166 329.066 361.886 382.634 361.265 365.318C360.488 343.674 355.568 287.559 359.711 304.661C363.025 318.342 369.205 348.573 370.327 356.233L367.22 304.661L378.613 345.277C376.024 326.751 370.068 285.421 376.283 293.972C383.533 316.204 385.949 334.767 384.568 336.727V290.498L392.336 324.969L390.265 287.559L399.845 316.151L397.774 282.482C399.414 293.616 403.108 313.051 404.765 301.721C406.422 290.392 405.456 273.664 404.765 266.716L413.569 282.482V242.667" stroke="black" stroke-width="5"/>
<path d="M187.263 403.263L192.182 336.192C192.096 367.545 193.063 426.136 197.62 409.676C202.177 393.215 201.935 378.056 201.245 372.533L206.683 419.83L212.897 376.809C213.328 399.522 215.175 439.925 219.111 419.83C223.047 399.736 224.549 379.926 224.808 372.533L229.468 429.717L237.236 356.767L241.897 429.717L248.37 352.492L253.031 434.794L260.799 348.217L264.165 437.466L270.38 348.217C270.897 383.845 273.021 451.575 277.371 437.466C281.721 423.357 279.183 372.088 277.371 348.217L288.505 429.717V361.844L296.791 419.83C296.359 397.829 296.583 357.569 300.934 372.533C304.662 402.247 303.868 414.486 303.005 416.891L309.737 361.844L313.88 403.263L317.505 356.767C317.937 379.124 319.784 418.708 323.719 398.186C327.655 377.664 330.02 368.258 330.711 366.12V393.91L341.586 366.12V386.963L352.72 361.844" stroke="black" stroke-width="5"/>
<path d="M193.736 296.11C210.926 297.362 212.12 299.316 237.754 299.316C263.388 299.316 282.29 292.636 282.29 292.636L304.558 283.551" stroke="black" stroke-width="5"/>
<path d="M301.452 200.447C310.755 202.012 315.891 205.383 325.273 204.455C333.549 203.637 338.373 201.977 345.47 197.507" stroke="black" stroke-width="2"/>
<path d="M355.827 59.3576C318.023 32.9034 293.572 16.8887 248.37 15.5345C218.725 14.6463 201.581 18.9296 173.539 28.8952C144.963 39.0508 105.44 66.8397 105.44 66.8397C105.44 66.8397 82.1365 92.4923 71.5203 117.878C60.9042 143.263 51.7861 171.271 50.288 207.127C48.7526 243.876 59.6099 262.975 66.3419 294.774C73.7528 329.779 91.4839 338.725 113.467 357.569C136.81 377.578 148.522 383.565 177.423 393.109C216.39 405.976 249.122 421.989 288.764 411.546C307.211 406.687 307.474 403.355 323.719 393.109C358.521 371.159 363.595 365.853 389.229 329.779C408.61 302.505 419.783 280.447 419.783 245.873C419.783 211.67 420.56 218.083 416.935 184.949C414.246 160.374 405.399 124.769 395.185 107.723C385.327 91.2742 374.393 72.3493 355.827 59.3576Z" stroke="black" stroke-width="5"/>
<path d="M64.7881 284.085C64.7881 284.085 67.2168 201.579 84.4669 152.883C89.9239 137.478 91.7907 127.931 100.78 114.404C116.656 90.5116 132.169 79.8065 158.78 70.5805C170.304 66.5853 177.207 63.5643 189.334 64.4346C203.552 65.4549 209.17 76.079 223.254 78.3298C232.947 79.8788 239.002 81.3269 248.37 78.3298C259.324 74.8257 261.398 65.1454 271.674 59.892C288.333 51.3754 300.748 48.3606 318.8 52.9444C338.065 57.8363 345.29 64.2676 359.711 78.3298C384.968 102.958 396.602 126.63 411.497 159.029" stroke="black" stroke-width="5"/>
<path d="M53.1362 226.634C53.1362 226.634 36.0001 221.683 26.9842 226.634C17.0945 232.065 15.3322 241.331 15.3322 241.331C12.3113 252.109 10.7233 281.52 20.252 299.049C29.7807 316.579 36.3919 319.18 45.1093 326.305C53.8266 333.431 65.2734 338.869 70.7435 336.994C79.0265 334.155 77.7346 334.055 82.9132 331.65" stroke="black" stroke-width="5"/>
<path d="M415.899 174.26C415.899 174.26 421.341 173.517 424.703 174.26C436.871 176.948 440.767 187.169 442.31 199.912C444.123 214.876 442.569 229.306 441.016 235.719C441.016 235.719 439.98 249.08 428.069 264.578C424.724 268.931 415.899 273.485 415.899 271.259" stroke="black" stroke-width="5"/>
<ellipse cx="12.4347" cy="21.8852" rx="12.4347" ry="21.8852" transform="matrix(0.990732 -0.135828 0.127677 0.991816 153.861 167.751)" fill="#231F20"/>
<ellipse cx="12.4315" cy="21.8906" rx="12.4315" ry="21.8906" transform="matrix(0.995029 -0.0995894 0.0935657 0.995613 299.558 156.523)" fill="#231F20"/>
<path d="M138.583 161.167C147.684 154.592 151.416 148.159 161.887 144.332C172.21 140.559 179.103 140.032 189.852 142.194M287.728 134.445C296.525 133.193 301.401 130.527 310.255 131.238C315.93 131.695 319.396 131.835 324.496 134.445C328.755 136.625 331.008 138.447 334.077 142.194M225.584 207.395C227.656 205.791 235.32 202.478 249.406 202.05C263.492 201.623 265.978 203.654 265.46 204.723" stroke="black" stroke-width="5"/>
<path d="M140.137 219.419C144.107 221.112 154.119 223.481 162.405 219.419C172.141 214.93 179.926 214.164 182.602 214.342" stroke="black" stroke-width="2"/>
</g>
<defs>
<clipPath id="clip0_215_571">
<rect width="455" height="455" fill="white"/>
</clipPath>
</defs>
</svg>
